<svg xmlns="http://www.w3.org/2000/svg" width="1920" height="1400" viewBox="0 0 1920 1400" fill="none">
  <defs>
    <linearGradient id="paper" x1="960" y1="0" x2="960" y2="1400" gradientUnits="userSpaceOnUse">
      <stop stop-color="#FFFFFF" />
      <stop offset="0.48" stop-color="#F3F4F6" />
      <stop offset="1" stop-color="#E5E7EB" />
    </linearGradient>
    <radialGradient id="lightPool" cx="0" cy="0" r="1" gradientUnits="userSpaceOnUse" gradientTransform="translate(415 170) rotate(42) scale(760 390)">
      <stop stop-color="#FFFFFF" />
      <stop offset="0.48" stop-color="#F8FAFC" stop-opacity="0.75" />
      <stop offset="1" stop-color="#F8FAFC" stop-opacity="0" />
    </radialGradient>
    <radialGradient id="charcoalPool" cx="0" cy="0" r="1" gradientUnits="userSpaceOnUse" gradientTransform="translate(1515 110) rotate(137) scale(690 350)">
      <stop stop-color="#111827" stop-opacity="0.16" />
      <stop offset="0.48" stop-color="#374151" stop-opacity="0.08" />
      <stop offset="1" stop-color="#374151" stop-opacity="0" />
    </radialGradient>
    <pattern id="grid" width="72" height="72" patternUnits="userSpaceOnUse">
      <path d="M72 0H0V72" stroke="#111827" stroke-opacity="0.07" stroke-width="1" />
    </pattern>
    <pattern id="dotGrid" width="24" height="24" patternUnits="userSpaceOnUse">
      <circle cx="1" cy="1" r="1" fill="#111827" fill-opacity="0.08" />
    </pattern>
    <linearGradient id="line" x1="184" y1="354" x2="1702" y2="720" gradientUnits="userSpaceOnUse">
      <stop stop-color="#111827" stop-opacity="0" />
      <stop offset="0.18" stop-color="#111827" stop-opacity="0.18" />
      <stop offset="0.58" stop-color="#6B7280" stop-opacity="0.22" />
      <stop offset="1" stop-color="#111827" stop-opacity="0" />
    </linearGradient>
    <filter id="blur" x="-20%" y="-20%" width="140%" height="140%">
      <feGaussianBlur stdDeviation="34" />
    </filter>
  </defs>

  <rect width="1920" height="1400" fill="url(#paper)" />
  <rect width="1920" height="1400" fill="url(#lightPool)" />
  <rect width="1920" height="1400" fill="url(#charcoalPool)" />
  <rect width="1920" height="1400" fill="url(#grid)" />
  <rect width="1920" height="1400" fill="url(#dotGrid)" opacity="0.52" />

  <g filter="url(#blur)" opacity="0.48">
    <ellipse cx="426" cy="1020" rx="370" ry="120" fill="#111827" fill-opacity="0.06" />
    <ellipse cx="1370" cy="620" rx="310" ry="100" fill="#6B7280" fill-opacity="0.07" />
  </g>

  <g stroke-linecap="round" stroke-linejoin="round">
    <path d="M188 380C402 286 540 478 718 406C905 330 1010 364 1172 478C1334 592 1498 532 1702 405" stroke="url(#line)" stroke-width="2.2" />
    <path d="M230 716C436 632 590 774 792 694C978 620 1130 638 1308 742C1478 842 1596 786 1786 672" stroke="url(#line)" stroke-opacity="0.72" stroke-width="1.8" />
    <path d="M128 1028C354 872 554 1056 778 950C986 852 1146 892 1334 1026C1490 1138 1624 1092 1810 962" stroke="url(#line)" stroke-opacity="0.5" stroke-width="1.8" />
  </g>

  <g opacity="0.62">
    <rect x="124" y="235" width="166" height="92" rx="12" stroke="#111827" stroke-opacity="0.09" />
    <rect x="1408" y="214" width="214" height="112" rx="14" stroke="#111827" stroke-opacity="0.1" />
    <rect x="1302" y="858" width="252" height="126" rx="16" stroke="#111827" stroke-opacity="0.09" />
    <rect x="292" y="1028" width="226" height="118" rx="16" stroke="#111827" stroke-opacity="0.08" />
  </g>

  <g fill="#111827" opacity="0.22">
    <circle cx="402" cy="286" r="3" />
    <circle cx="718" cy="406" r="3" />
    <circle cx="1172" cy="478" r="3" />
    <circle cx="1498" cy="532" r="3" />
    <circle cx="590" cy="774" r="2.5" />
    <circle cx="792" cy="694" r="2.5" />
    <circle cx="1308" cy="742" r="2.5" />
    <circle cx="554" cy="1056" r="2.5" />
    <circle cx="1334" cy="1026" r="2.5" />
  </g>
</svg>
